<?xml version="1.0" standalone="no"?>
<!DOCTYPE svg PUBLIC "-//W3C//DTD SVG 20010904//EN"
 "http://www.w3.org/TR/2001/REC-SVG-20010904/DTD/svg10.dtd">
<svg version="1.0" xmlns="http://www.w3.org/2000/svg"
 width="700.000000pt" height="700.000000pt" viewBox="0 0 700.000000 700.000000"
 preserveAspectRatio="xMidYMid meet">
<metadata>
Created by potrace 1.14, written by Peter Selinger 2001-2017
</metadata>
<g transform="translate(0.000000,700.000000) scale(0.100000,-0.100000)"
fill="#000000" stroke="none">
<path d="M3407 6763 c-1 -1 -49 -4 -107 -7 -58 -4 -121 -9 -140 -11 -19 -3
-52 -7 -74 -10 -483 -57 -986 -246 -1405 -527 -71 -48 -230 -165 -241 -177 -3
-4 -34 -31 -70 -61 -579 -491 -987 -1231 -1096 -1985 -3 -22 -7 -50 -9 -63 -4
-26 -14 -120 -20 -202 -6 -78 -6 -363 0 -440 49 -619 238 -1153 581 -1647 239
-343 534 -628 902 -871 51 -34 95 -62 98 -62 2 0 21 -11 42 -23 263 -166 715
-330 1077 -392 344 -59 745 -60 1075 -5 30 5 71 12 90 15 57 9 239 54 330 81
224 66 465 170 680 293 108 61 273 170 278 183 2 4 8 8 13 8 5 0 17 6 26 14
10 8 56 45 103 82 206 165 418 383 571 589 335 449 560 1002 624 1535 30 243
34 542 10 750 -3 30 -8 75 -11 100 -27 234 -126 598 -229 840 -108 256 -295
571 -450 759 -366 446 -777 759 -1280 973 -266 113 -612 207 -864 234 -30 3
-63 8 -74 10 -36 6 -425 22 -430 17z m-201 -1874 l1 -1264 -896 -898 -896
-898 -28 33 c-55 63 -205 298 -260 405 -167 326 -259 649 -293 1018 -7 78 -7
368 0 430 2 22 7 68 11 102 3 34 8 72 11 85 2 13 7 39 10 58 3 19 14 76 25
125 11 50 22 98 24 108 2 10 27 86 55 168 192 568 566 1049 1076 1383 110 71
352 199 449 235 179 68 378 127 495 146 19 3 69 12 110 19 41 7 82 12 90 11
13 -2 15 -150 16 -1266z m679 1257 c28 -4 66 -10 85 -12 73 -11 281 -65 391
-103 158 -55 244 -91 378 -162 670 -353 1154 -962 1350 -1699 11 -41 22 -88
26 -105 15 -78 34 -196 40 -250 3 -33 9 -78 11 -100 7 -60 7 -340 0 -425 -13
-147 -24 -220 -56 -365 -11 -49 -22 -101 -25 -115 -12 -54 -80 -250 -122 -350
-62 -148 -201 -403 -265 -485 -5 -5 -31 -41 -60 -78 l-52 -68 -896 896 -896
896 2 1262 c0 694 2 1265 3 1269 0 4 9 5 19 4 9 -2 40 -7 67 -10z m-680 -4333
c0 -854 -2 -968 -15 -968 -16 1 -94 12 -145 20 -410 70 -800 238 -1143 492
l-75 55 684 684 c376 376 686 684 689 684 3 0 6 -435 5 -967z m1940 -420 c-51
-51 -318 -218 -460 -288 -222 -109 -401 -172 -620 -218 -102 -22 -202 -38
-250 -41 -20 -1 -20 6 -21 959 0 528 1 964 4 969 3 4 312 -299 688 -675 l683
-683 -24 -23z"/>
</g>
</svg>
